<svg xmlns="http://www.w3.org/2000/svg" shape-rendering="geometricPrecision" text-rendering="geometricPrecision" image-rendering="optimizeQuality" fill-rule="evenodd" clip-rule="evenodd" viewBox="0 0 512 341.39"><path d="M3.62 302.83c-2 0-3.62-1.62-3.62-3.62 0-1.04.14-2.05.39-3.06 5.8-46 41.82-58.27 67.37-64.9 12.79-3.31 44.6-15.93 31.92-33.3-7.1-9.74-13.53-16.58-19.97-26.87-4.65-6.86-7.1-12.99-7.1-17.89 0-5.23 2.77-11.35 8.32-12.74-.73-10.53-.98-24.38-.48-35.65 1.76-19.35 15.64-33.61 33.57-39.93 7.09-2.7 3.66-13.49 11.5-13.72 18.38-.5 48.51 15.19 60.28 27.92 6.86 7.35 11.26 17.15 12 30.14l-.74 32.46c3.43.98 5.64 3.19 6.62 6.62.98 3.92 0 9.31-3.43 16.91 0 .24-.25.24-.25.49-7.56 12.46-15.44 20.72-24.1 32.26-3.86 5.16-3.11 10.09.1 14.53-4.51 2.63-8.92 5.66-13.15 9.22-16.79 14.09-29.76 35.09-34.32 68.53-.9 3.91-1.25 8.64-.6 12.6H3.62zm415.6-73.61c-.03-3.56-.36-6.1 4.05-6.04l14.28.18c4.61-.03 5.84 1.43 5.79 5.75v19.48h19.36c3.55-.03 6.09-.36 6.03 4.05l-.17 14.29c.02 4.61-1.44 5.83-5.76 5.78h-19.46v19.47c.05 4.32-1.18 5.78-5.79 5.75l-14.28.18c-4.41.06-4.08-2.48-4.05-6.04v-19.36h-19.49c-4.31.05-5.77-1.17-5.75-5.78l-.17-14.29c-.07-4.41 2.48-4.08 6.03-4.05h19.38v-19.37zm12.05-49.31c22.29 0 42.48 9.04 57.08 23.65 14.61 14.61 23.65 34.81 23.65 57.09 0 22.3-9.04 42.48-23.65 57.09-14.6 14.61-34.8 23.65-57.08 23.65-22.3 0-42.48-9.04-57.09-23.65l-.45-.48c-14.35-14.59-23.2-34.59-23.2-56.61 0-22.26 9.04-42.45 23.66-57.06 14.6-14.64 34.79-23.68 57.08-23.68zm45.31 35.42c-11.59-11.59-27.61-18.76-45.31-18.76-17.7 0-33.74 7.17-45.33 18.76-11.6 11.57-18.76 27.6-18.76 45.32 0 17.53 7.01 33.41 18.36 44.94l.41.38c11.59 11.6 27.61 18.77 45.32 18.77 17.69 0 33.72-7.17 45.31-18.77 11.6-11.59 18.77-27.62 18.77-45.32 0-17.69-7.17-33.73-18.77-45.32zm-322.65 87.54c-2.44 0-4.42-1.98-4.42-4.43 0-1.25.17-2.5.48-3.73 7.08-56.13 40.73-68.33 71.87-76.34 14.95-3.84 44.78-18.85 41.16-38.2-7.54-6.99-15.03-16.65-16.33-31.06l-.91.02c-2.09-.03-4.11-.51-6-1.57-4.16-2.37-6.44-6.91-7.54-12.08-2.3-15.79-2.89-23.85 5.53-27.38l.07-.03c-1.04-19.48 2.25-48.14-17.76-54.2 39.5-48.81 85.05-75.37 119.24-31.94 38.1 2 55.09 55.96 31.43 86.17h-1c8.42 3.53 7.15 12.58 5.53 27.38-1.1 5.17-3.38 9.71-7.54 12.08-1.89 1.06-3.91 1.54-6 1.57l-.91-.02c-1.3 14.41-8.81 24.07-16.35 31.06-1.22 6.55 1.37 12.58 5.93 17.87-13.43 17.3-21.41 39.03-21.41 62.61 0 15.05 3.25 29.35 9.09 42.22H153.93z"/></svg>