<?xml version="1.0" ?><!DOCTYPE svg  PUBLIC '-//W3C//DTD SVG 1.1//EN'  'http://www.w3.org/Graphics/SVG/1.1/DTD/svg11.dtd'><svg enable-background="new 0 0 48 48" height="48px" id="Layer_4" version="1.1" viewBox="0 0 48 48" width="48px" xml:space="preserve" xmlns="http://www.w3.org/2000/svg" xmlns:xlink="http://www.w3.org/1999/xlink"><path d="M42,36c-1.601,0-3.052,0.631-4.128,1.652L11.704,25.855C11.895,25.271,12,24.648,12,24  c0-0.652-0.107-1.278-0.3-1.865l26.164-11.796C38.941,11.366,40.396,12,42,12c3.314,0,6-2.687,6-6s-2.686-6-6-6  c-3.312,0-6,2.687-6,6c0,0.049,0.006,0.098,0.008,0.146L8.497,18.549C7.736,18.2,6.892,18,6,18c-3.313,0-6,2.687-6,6s2.687,6,6,6  c0.897,0,1.746-0.202,2.51-0.556l27.498,12.397C36.007,41.895,36,41.946,36,42c0,3.312,2.687,6,6,6s6-2.688,6-6  C48,38.686,45.313,36,42,36z M42.062,3.062c1.656,0,3,1.343,3,3s-1.344,3-3,3s-3-1.343-3-3S40.406,3.062,42.062,3.062z M5.75,27  c-1.657,0-3-1.343-3-3s1.343-3,3-3s3,1.343,3,3S7.407,27,5.75,27z M42.062,45.062c-1.656,0-3-1.343-3-3s1.344-3,3-3s3,1.343,3,3  S43.719,45.062,42.062,45.062z" fill="#241F20"/></svg>