<svg id="Layer_1" data-name="Layer 1" xmlns="http://www.w3.org/2000/svg" viewBox="0 0 122.88 116.34"><defs><style>.cls-1{fill-rule:evenodd;}</style></defs><title>car-driving-on-the-road</title><path class="cls-1" d="M0,116.34,30.11,0h7L11,116.34ZM28.85,83.7c-7.17-3.64-6.34-7.7.86-7.28l1.61,3,3.32-10.34C36,65,38.12,61.35,42.39,61.35h41c4.27,0,6.72,3.62,7.75,7.75l2.5,10L95,76.42c7.41-.43,8.07,3.87.23,7.59L96.53,86c5.15,5.3,4.66,10.58,3.86,23.66v4.3A2.43,2.43,0,0,1,98,116.34H87.63a2.43,2.43,0,0,1-2.42-2.42v-2H37.91v2a2.43,2.43,0,0,1-2.42,2.42H25.15a2.43,2.43,0,0,1-2.42-2.42v-5.58a2.25,2.25,0,0,1,0-.38c-.79-10-1.89-19.09,6.09-24.26Zm13.2,11.9-9.18-1.15c-2.17-.24-2.75.67-2,2.54l1,2.41a3.42,3.42,0,0,0,1.24,1.38,4.16,4.16,0,0,0,2.06.57l8.18.06c2,0,2.84-.79,2.22-2.61a4.44,4.44,0,0,0-3.5-3.2Zm39,0,9.18-1.15c2.16-.24,2.75.67,2,2.54l-1,2.41A3.49,3.49,0,0,1,90,100.78a4.19,4.19,0,0,1-2.06.57l-8.19.06c-2,0-2.83-.79-2.21-2.61a4.44,4.44,0,0,1,3.5-3.2ZM34.77,81.72H89.9L87.4,71.33c-.68-3.17-2.65-5.91-5.91-5.91H43.8c-3.25,0-4.91,2.82-5.91,5.91L34.77,81.72v0ZM64.14,0l.42,10.56H58.13L58.76,0ZM56.05,48.37H66.64l.6,7.31H55.55l.5-7.31Zm1.63-27.2h7.58l.79,16.66H56.83l.85-16.66ZM93.4,0l29.48,116.33H112.42L85.84,0Z"/></svg>