<svg xmlns="http://www.w3.org/2000/svg" shape-rendering="geometricPrecision" text-rendering="geometricPrecision" image-rendering="optimizeQuality" fill-rule="evenodd" clip-rule="evenodd" viewBox="0 0 472 511.84"><path d="M0 438.48c8.65-112 42.78-89.64 138.34-149.43 15.1 39.21 60.88 57.46 102.46 52.18-4.2 9.12-7.31 18.67-9.26 28.45-4.48 22.53-2.9 46.35 5.36 68.8H0zm356.73-141.54a97.47 97.47 0 0 1 69.01 28.59c25.32 25.31 34.73 62.63 24.54 96.9a96.944 96.944 0 0 1-9.92 22.44l30.41 33.81a4.664 4.664 0 0 1-.28 6.59l-27.75 25.35a4.652 4.652 0 0 1-6.58-.29l-28.77-32.38c-15.31 9.33-32.73 14.19-50.66 14.19a97.502 97.502 0 0 1-69.01-28.58 97.711 97.711 0 0 1-21.18-31.7c-15.13-36.43-6.53-78.61 21.19-106.32a97.397 97.397 0 0 1 31.67-21.19c11.51-4.78 24.13-7.41 37.33-7.41zm55.06 42.53c-22.22-22.22-55.91-28.91-84.85-16.92-51.95 21.51-63.88 88.49-25.29 127.05 22.26 22.21 55.88 28.92 84.86 16.93a77.87 77.87 0 0 0 48.08-72c0-10.57-2.09-20.63-5.87-29.77a78.26 78.26 0 0 0-16.93-25.29zm-245.4-54.85c-1.03-1.83 3.24-13.42 4.33-15.25-12.48-11.11-22.35-22.32-24.45-45.38l-1.34.02c-3.09-.04-6.07-.75-8.86-2.34-4.48-2.54-7.62-6.91-9.74-11.83-4.5-10.33-8.06-34.13 3.26-41.9l-2.13-1.41-.24-3c-.43-5.47-.54-12.09-.65-19.03-.41-25.55-.93-46.37-21.47-52.59l-8.82-2.66 5.81-7.18c16.6-20.52 33.94-38.46 51.43-52.23C173.31 14.26 193.42 3.89 213.1.9c20.23-3.07 39.84 1.57 57.94 16.21 5.34 4.32 10.53 9.51 15.54 15.59 19.31 1.87 35.1 12.28 46.38 27.12 6.73 8.87 11.84 19.35 15.1 30.49 3.24 11.09 4.65 22.91 4.05 34.54-1.09 20.83-8.71 31.03-24.06 45.87 2.7.09 5.24.72 7.49 1.92 8.56 4.58 8.84 14.53 6.59 22.88-2.22 6.98-5.05 11.7-7.72 18.49-3.24 9.18-7.98 10.89-17.13 9.9-.47 22.69-10.96 33.83-25.07 47.16l3.18 11.16-.12.51c-3.24 1.78-6.39 3.69-9.44 5.73-6.95 4.65-13.4 9.95-19.27 15.81l-.1.11a124.48 124.48 0 0 0-8.54 9.45c-32.18 8.15-75.49-.62-91.53-29.22z"/></svg>