<?xml version="1.0" ?><svg id="OBJECT" viewBox="0 0 512 512" xmlns="http://www.w3.org/2000/svg"><defs><style>.cls-1{fill:#bddbff;}.cls-2{fill:#3d9ae2;}.cls-3{fill:#fff;}</style></defs><title/><rect class="cls-1" height="230" rx="20" ry="20" width="497" x="7.5" y="141"/><path class="cls-2" d="M484.5,378.5H27.5A27.54,27.54,0,0,1,0,351V161a27.54,27.54,0,0,1,27.5-27.5h457A27.54,27.54,0,0,1,512,161V351A27.54,27.54,0,0,1,484.5,378.5Zm-457-230A12.52,12.52,0,0,0,15,161V351a12.52,12.52,0,0,0,12.5,12.5h457A12.52,12.52,0,0,0,497,351V161a12.52,12.52,0,0,0-12.5-12.5Z"/><polygon class="cls-1" points="431 141 81 141 96 81 416 81 431 141"/><path class="cls-2" d="M431,148.5H81a7.5,7.5,0,0,1-7.28-9.32l15-60A7.51,7.51,0,0,1,96,73.5H416a7.51,7.51,0,0,1,7.28,5.68l15,60A7.5,7.5,0,0,1,431,148.5Zm-340.39-15H421.39l-11.25-45H101.86Z"/><path class="cls-3" d="M101,311H411a20,20,0,0,1,20,20v40a0,0,0,0,1,0,0H81a0,0,0,0,1,0,0V331A20,20,0,0,1,101,311Z"/><path class="cls-2" d="M431,378.5H81a7.5,7.5,0,0,1-7.5-7.5V331A27.54,27.54,0,0,1,101,303.5H411A27.54,27.54,0,0,1,438.5,331v40A7.5,7.5,0,0,1,431,378.5Zm-342.5-15h335V331A12.52,12.52,0,0,0,411,318.5H101A12.52,12.52,0,0,0,88.5,331Z"/><path class="cls-3" d="M146,7.5H366a20,20,0,0,1,20,20V141a0,0,0,0,1,0,0H126a0,0,0,0,1,0,0V27.5A20,20,0,0,1,146,7.5Z"/><path class="cls-2" d="M386,148.5H126a7.5,7.5,0,0,1-7.5-7.5V27.5A27.54,27.54,0,0,1,146,0H366a27.54,27.54,0,0,1,27.5,27.5V141A7.5,7.5,0,0,1,386,148.5Zm-252.5-15h245V27.5A12.52,12.52,0,0,0,366,15H146a12.52,12.52,0,0,0-12.5,12.5Z"/><path class="cls-1" d="M401.31,504.5H110.69a20,20,0,0,1-19.38-24.91L125,346.5H387l33.69,133.09A20,20,0,0,1,401.31,504.5Z"/><path class="cls-2" d="M401.31,512H110.69A27.49,27.49,0,0,1,84,477.75l33.69-133.09A7.5,7.5,0,0,1,125,339H387a7.5,7.5,0,0,1,7.27,5.66L428,477.75A27.49,27.49,0,0,1,401.31,512ZM130.84,354,98.58,481.43A12.49,12.49,0,0,0,110.69,497H401.31a12.49,12.49,0,0,0,12.11-15.57L381.16,354Z"/><path class="cls-2" d="M356,406.5H156a7.5,7.5,0,0,1,0-15H356a7.5,7.5,0,0,1,0,15Z"/><path class="cls-2" d="M366,438.5H146a7.5,7.5,0,0,1,0-15H366a7.5,7.5,0,0,1,0,15Z"/><path class="cls-2" d="M376,470.5H136a7.5,7.5,0,0,1,0-15H376a7.5,7.5,0,0,1,0,15Z"/><path class="cls-3" d="M356,211H326a15,15,0,0,1,0-30h30a15,15,0,0,1,0,30Z"/><path class="cls-2" d="M356,218.5H326a22.5,22.5,0,0,1,0-45h30a22.5,22.5,0,0,1,0,45Zm-30-30a7.5,7.5,0,0,0,0,15h30a7.5,7.5,0,0,0,0-15Z"/><path class="cls-3" d="M446,211H416a15,15,0,0,1,0-30h30a15,15,0,0,1,0,30Z"/><path class="cls-2" d="M446,218.5H416a22.5,22.5,0,0,1,0-45h30a22.5,22.5,0,0,1,0,45Zm-30-30a7.5,7.5,0,0,0,0,15h30a7.5,7.5,0,0,0,0-15Z"/></svg>